<svg width="16" height="12" viewBox="0 0 16 12" fill="none" xmlns="http://www.w3.org/2000/svg">
<g id="bars">
<path id="Vector" d="M15 6.75H1C0.801088 6.75 0.610322 6.67098 0.46967 6.53033C0.329018 6.38968 0.25 6.19891 0.25 6C0.25 5.80109 0.329018 5.61032 0.46967 5.46967C0.610322 5.32902 0.801088 5.25 1 5.25H15C15.1989 5.25 15.3897 5.32902 15.5303 5.46967C15.671 5.61032 15.75 5.80109 15.75 6C15.75 6.19891 15.671 6.38968 15.5303 6.53033C15.3897 6.67098 15.1989 6.75 15 6.75Z" fill="#411941"/>
<path id="Vector_2" d="M15 2.25H1C0.801088 2.25 0.610322 2.17098 0.46967 2.03033C0.329018 1.88968 0.25 1.69891 0.25 1.5C0.25 1.30109 0.329018 1.11032 0.46967 0.96967C0.610322 0.829018 0.801088 0.75 1 0.75H15C15.1989 0.75 15.3897 0.829018 15.5303 0.96967C15.671 1.11032 15.75 1.30109 15.75 1.5C15.75 1.69891 15.671 1.88968 15.5303 2.03033C15.3897 2.17098 15.1989 2.25 15 2.25Z" fill="#411941"/>
<path id="Vector_3" d="M15 11.25H1C0.801088 11.25 0.610322 11.171 0.46967 11.0303C0.329018 10.8897 0.25 10.6989 0.25 10.5C0.25 10.3011 0.329018 10.1103 0.46967 9.96967C0.610322 9.82902 0.801088 9.75 1 9.75H15C15.1989 9.75 15.3897 9.82902 15.5303 9.96967C15.671 10.1103 15.75 10.3011 15.75 10.5C15.75 10.6989 15.671 10.8897 15.5303 11.0303C15.3897 11.171 15.1989 11.25 15 11.25Z" fill="#411941"/>
</g>
</svg>
