<svg width="18" height="16" viewBox="0 0 18 16" fill="none" xmlns="http://www.w3.org/2000/svg">
<g id="home">
<path id="Vector" d="M17 7.75C16.8376 7.75073 16.6795 7.69802 16.55 7.6L9 1.94L1.45 7.6C1.29087 7.71935 1.09085 7.77059 0.893937 7.74246C0.697024 7.71433 0.519351 7.60913 0.400003 7.45C0.280656 7.29087 0.22941 7.09085 0.257541 6.89393C0.285671 6.69702 0.390873 6.51935 0.550003 6.4L8.55 0.4C8.67982 0.302634 8.83773 0.25 9 0.25C9.16228 0.25 9.32018 0.302634 9.45 0.4L17.45 6.4C17.5952 6.51795 17.6911 6.68591 17.7189 6.87092C17.7466 7.05593 17.7042 7.24464 17.6 7.4C17.5363 7.50298 17.4482 7.58875 17.3436 7.64977C17.239 7.7108 17.121 7.74521 17 7.75Z" fill="#411941"/>
<path id="Vector_2" d="M15 15.75H3C2.80189 15.7474 2.61263 15.6676 2.47253 15.5275C2.33244 15.3874 2.25259 15.1981 2.25 15V5.5C2.25 5.30109 2.32902 5.11032 2.46967 4.96967C2.61032 4.82902 2.80109 4.75 3 4.75C3.19891 4.75 3.38968 4.82902 3.53033 4.96967C3.67098 5.11032 3.75 5.30109 3.75 5.5V14.25H14.25V5.5C14.25 5.30109 14.329 5.11032 14.4697 4.96967C14.6103 4.82902 14.8011 4.75 15 4.75C15.1989 4.75 15.3897 4.82902 15.5303 4.96967C15.671 5.11032 15.75 5.30109 15.75 5.5V15C15.7474 15.1981 15.6676 15.3874 15.5275 15.5275C15.3874 15.6676 15.1981 15.7474 15 15.75Z" fill="#411941"/>
<path id="Vector_3" d="M11 15.75C10.8019 15.7474 10.6126 15.6676 10.4725 15.5275C10.3324 15.3874 10.2526 15.1981 10.25 15V8.75H7.75V15C7.75 15.1989 7.67098 15.3897 7.53033 15.5303C7.38968 15.671 7.19891 15.75 7 15.75C6.80109 15.75 6.61032 15.671 6.46967 15.5303C6.32902 15.3897 6.25 15.1989 6.25 15V8C6.25259 7.80189 6.33244 7.61263 6.47253 7.47253C6.61263 7.33244 6.80189 7.25259 7 7.25H11C11.1981 7.25259 11.3874 7.33244 11.5275 7.47253C11.6676 7.61263 11.7474 7.80189 11.75 8V15C11.7474 15.1981 11.6676 15.3874 11.5275 15.5275C11.3874 15.6676 11.1981 15.7474 11 15.75Z" fill="#411941"/>
</g>
</svg>
