<svg width="114" height="17" viewBox="0 0 114 17" fill="none" xmlns="http://www.w3.org/2000/svg">
<g id="Group 271">
<path id="Vector" d="M6.59283 8.58902V8.59748C6.59283 8.58902 6.59283 8.58056 6.59283 8.58056C6.59283 7.13377 5.7806 4.87473 3.3185 4.78167C3.3185 4.78167 1.7871 4.69706 0.856415 5.62775C0.340307 6.12693 0.0357153 6.8884 0.00187216 7.37913V7.49758C0.00187216 8.08983 0.83949 8.3352 1.38098 7.97984C2.11707 7.48912 2.04093 6.83764 3.12391 6.76149C4.23227 6.6938 4.73146 7.65833 4.73146 8.58056C4.73146 9.50279 4.23227 10.4673 3.12391 10.3996C2.04939 10.3319 2.12553 9.672 1.38098 9.18128C0.847951 8.82592 0.0357153 9.07975 0.00187216 9.62124V14.1139C0.00187216 14.1139 -0.125039 15.7638 1.71095 15.7638C1.83787 15.7638 1.88017 15.6538 1.88017 15.5353V11.9564C1.88017 11.9564 2.4132 12.2187 3.36927 12.1849C5.92443 12.1087 6.59283 10.095 6.59283 8.58902ZM12.0754 7.76832H9.57949C9.79101 7.1253 10.2733 6.65996 11.0601 6.65996C11.8639 6.67688 12.0585 7.19299 12.0754 7.76832ZM13.903 8.64825C13.9368 8.41981 13.9537 8.20829 13.9537 7.97138C13.9453 6.16077 12.9215 4.97626 11.0601 4.97626C8.40344 4.97626 7.58275 7.07454 7.58275 8.53826C7.58275 10.0358 8.40344 12.1172 11.0601 12.1172C12.0077 12.1172 12.7608 11.7957 13.5307 11.1949C13.6322 11.1103 13.6576 10.9665 13.5814 10.8396L12.9384 9.96813C12.8538 9.85814 12.71 9.84122 12.6085 9.91737C12.1177 10.2389 11.5762 10.4081 11.0601 10.4081C10.1548 10.4081 9.63872 9.69739 9.52873 8.87669H13.6491C13.793 8.87669 13.903 8.78362 13.903 8.64825ZM21.7546 8.58056C21.7546 7.13377 20.9423 4.87473 18.4802 4.78167C18.4802 4.78167 16.9488 4.69706 16.0182 5.62775C15.502 6.12693 15.1975 6.8884 15.1636 7.37913V7.49758C15.1636 8.08983 16.0012 8.3352 16.5427 7.97984C17.2788 7.48912 17.2027 6.83764 18.2857 6.76149C19.394 6.6938 19.8932 7.65833 19.8932 8.58056C19.8932 9.50279 19.394 10.4673 18.2857 10.3996C17.2111 10.3319 17.2873 9.672 16.5427 9.18128C16.0097 8.82592 15.1636 9.08821 15.1636 9.66354V14.1139C15.1636 14.1139 15.0367 15.7638 16.8727 15.7638C16.9996 15.7638 17.0419 15.6538 17.0419 15.5353V11.9564C17.0419 11.9564 17.5749 12.2187 18.531 12.1849C21.0862 12.1087 21.7546 10.0866 21.7546 8.58056ZM29.6316 8.58056C29.6231 7.13377 28.8109 4.87473 26.3572 4.78167C26.3572 4.78167 24.8258 4.69706 23.8952 5.62775C23.379 6.12693 23.0745 6.8884 23.0406 7.37913V7.49758C23.0406 8.08983 23.8782 8.3352 24.4197 7.97984C25.1558 7.48912 25.0797 6.83764 26.1626 6.76149C27.271 6.6938 27.7702 7.65833 27.7702 8.58056C27.7702 9.50279 27.271 10.4673 26.1626 10.3996C25.0881 10.3319 25.1643 9.672 24.4197 9.18128C23.8867 8.82592 23.0406 9.08821 23.0406 9.66354V14.1139C23.0406 14.1139 22.9137 15.7638 24.7497 15.7638C24.8766 15.7638 24.9189 15.6538 24.9189 15.5353V11.9564C24.9189 11.9564 25.4519 12.2187 26.408 12.1849C28.9716 12.1087 29.6316 10.0866 29.6316 8.58056ZM35.2242 7.76832H32.7282C32.9397 7.1253 33.422 6.65996 34.2089 6.65996C35.0126 6.67688 35.2157 7.19299 35.2242 7.76832ZM37.0517 8.64825C37.0855 8.41981 37.1025 8.20829 37.1025 7.97138C37.094 6.16077 36.0533 4.97626 34.2089 4.97626C31.5522 4.97626 30.7315 7.07454 30.7315 8.53826C30.7315 10.0358 31.5522 12.1172 34.2089 12.1172C35.1565 12.1172 35.9095 11.7957 36.6794 11.1949C36.7809 11.1103 36.8063 10.9665 36.7302 10.8396L36.0872 9.96813C36.0025 9.85814 35.8587 9.84122 35.7572 9.91737C35.2665 10.2389 34.725 10.4081 34.2089 10.4081C33.3036 10.4081 32.7874 9.69739 32.6775 8.87669H36.7979C36.9417 8.87669 37.0517 8.78362 37.0517 8.64825ZM42.3397 6.59227L42.7543 5.30623C42.7712 5.21316 42.695 5.08625 42.5766 5.06087C42.2635 5.01857 41.8913 4.99319 41.6544 4.99319C41.0113 4.99319 40.4275 5.14548 39.8776 5.50929L39.793 5.29777C39.7422 5.15394 39.6153 5.06933 39.4715 5.06933H38.6677C38.5408 5.06933 38.4393 5.17932 38.4393 5.29777V11.7787C38.4393 11.9057 38.5493 12.0072 38.6677 12.0072H40.0722C40.1991 12.0072 40.3006 11.8972 40.3006 11.7787V7.29452C40.5629 6.85456 40.9944 6.71919 41.4344 6.71919C41.6459 6.71919 41.849 6.75303 42.0266 6.76995C42.1705 6.78687 42.2889 6.71919 42.3397 6.59227Z" fill="#DF0024"/>
<path id="Vector_2" d="M54.2179 9.769C53.9556 10.0567 53.5664 10.2851 52.9741 10.2851C51.5866 10.2851 51.3835 8.85524 51.3835 8.3899C51.3835 7.91609 51.595 6.49468 52.9741 6.49468C53.4987 6.49468 53.9725 6.73158 54.2179 6.97694V9.769ZM56.0877 11.8419V5.86012C56.0877 5.30171 55.7239 4.92097 55.1824 4.92097C54.8778 4.92097 54.6325 5.03942 54.4717 5.24248C53.9894 4.95481 53.4395 4.81098 52.898 4.81098C50.3174 4.81098 49.5137 6.9008 49.5137 8.3899C49.5137 9.82823 50.2582 11.8504 52.6611 11.9773C52.8134 11.9773 52.9826 11.9773 53.1349 11.9603C53.6256 11.935 54.1417 11.7742 54.5563 11.4358C54.8186 11.7827 55.2332 12.0111 55.6985 12.0111H55.9185C56.0116 12.0111 56.0877 11.935 56.0877 11.8419ZM61.858 9.76054C61.5957 10.0567 61.2065 10.2767 60.6058 10.2767C59.2182 10.2767 59.0067 8.84678 59.0067 8.37297C59.0067 7.89917 59.2182 6.4693 60.6058 6.4693C61.1303 6.4693 61.6041 6.7062 61.858 6.96002V9.76054ZM63.7363 11.8419V3.37264C63.7363 2.55195 63.0848 1.88354 62.2725 1.88354H62.0441C61.951 1.88354 61.8749 1.95969 61.8749 2.05276V5.09019C61.4518 4.88713 60.995 4.7856 60.5296 4.7856C57.9406 4.7856 57.1368 6.88387 57.1368 8.37297C57.1368 9.81977 57.8899 11.8504 60.2927 11.9773C60.445 11.9773 60.6142 11.9773 60.7665 11.9603C61.2573 11.935 61.7734 11.7742 62.1964 11.4358C62.4587 11.7827 62.8733 12.0111 63.3471 12.0111H63.567C63.6601 12.0111 63.7363 11.935 63.7363 11.8419ZM71.7063 5.10711C71.7486 5.00558 71.6809 4.89559 71.5625 4.89559H70.6826C70.0988 4.89559 69.5658 5.24248 69.3289 5.78397L68.2205 8.37297L67.1121 5.78397C66.8837 5.24248 66.3507 4.89559 65.7584 4.89559H64.8954C64.7854 4.89559 64.7093 5.00558 64.7516 5.10711L67.992 11.8673C68.0343 11.9519 68.119 12.0111 68.2205 12.0111C68.322 12.0111 68.4151 11.9519 68.4574 11.8673L71.7063 5.10711ZM76.5544 9.769C76.2921 10.0567 75.9029 10.2851 75.3106 10.2851C73.9231 10.2851 73.72 8.85524 73.72 8.3899C73.72 7.91609 73.9315 6.49468 75.3106 6.49468C75.8352 6.49468 76.309 6.73158 76.5544 6.97694V9.769ZM78.4242 11.8419V5.86012C78.4242 5.30171 78.0604 4.92097 77.5189 4.92097C77.2143 4.92097 76.9689 5.03942 76.8082 5.24248C76.3259 4.95481 75.776 4.81098 75.2345 4.81098C72.6539 4.81098 71.8502 6.9008 71.8502 8.3899C71.8502 9.82823 72.5947 11.8504 74.9976 11.9773C75.1499 11.9773 75.3191 11.9773 75.4714 11.9603C75.9621 11.935 76.4782 11.7742 76.8928 11.4358C77.1551 11.7827 77.5697 12.0111 78.035 12.0111H78.255C78.3481 12.0111 78.4242 11.935 78.4242 11.8419ZM85.7766 10.9958V7.55228C85.7766 5.91088 84.7529 4.80252 83.2384 4.80252C82.4854 4.80252 81.7578 5.07326 81.3009 5.65706C81.0555 5.19171 80.5648 4.8702 80.0064 4.8702H79.7779C79.6849 4.8702 79.6087 4.94635 79.6087 5.03942V10.9874C79.6087 11.5712 79.981 11.9603 80.5394 11.9603C81.0386 11.9603 81.3855 11.6473 81.4532 11.165C81.4701 11.1058 81.4785 11.0381 81.4785 10.9704V7.83995C81.5462 7.05309 81.9947 6.57929 82.7223 6.57929C83.7799 6.57929 83.9406 7.49305 83.9406 8.03454V10.9874C83.9406 11.5712 84.3129 11.9603 84.8713 11.9603C85.4044 11.9688 85.7766 11.5796 85.7766 10.9958ZM91.7753 5.72475C91.7753 5.22556 91.3777 4.81944 90.8785 4.81944H90.0832V3.37264C90.0832 2.55195 89.4317 1.88354 88.6195 1.88354H88.391C88.2979 1.88354 88.2218 1.95969 88.2218 2.05276V4.81098H87.3926C86.8935 4.81098 86.4958 5.2171 86.4958 5.71628C86.4958 6.21547 86.8935 6.62159 87.3926 6.62159H88.2218V10.4797C88.2218 11.3004 88.8733 11.9688 89.6855 11.9688H89.914C90.007 11.9688 90.0832 11.8927 90.0832 11.7996V6.63005H90.8785C91.3777 6.63005 91.7753 6.22393 91.7753 5.72475ZM96.8857 9.769C96.6234 10.0567 96.2342 10.2851 95.6419 10.2851C94.2543 10.2851 94.0513 8.85524 94.0513 8.3899C94.0513 7.91609 94.2628 6.49468 95.6419 6.49468C96.1665 6.49468 96.6403 6.73158 96.8857 6.97694V9.769ZM98.7555 11.8419V5.86012C98.7555 5.30171 98.3917 4.92097 97.8502 4.92097C97.5456 4.92097 97.3002 5.03942 97.1395 5.24248C96.6572 4.95481 96.1073 4.81098 95.5658 4.81098C92.9852 4.81098 92.1815 6.9008 92.1815 8.3899C92.1815 9.82823 92.926 11.8504 95.3289 11.9773C95.4812 11.9773 95.6504 11.9773 95.8027 11.9603C96.2934 11.935 96.8095 11.7742 97.2241 11.4358C97.4864 11.7827 97.9009 12.0111 98.3663 12.0111H98.5863C98.6793 12.0111 98.7555 11.935 98.7555 11.8419ZM104.475 9.77746C104.213 10.0651 103.824 10.2936 103.231 10.2936C101.844 10.2936 101.641 8.8637 101.641 8.39836C101.641 7.93301 101.852 6.50314 103.231 6.50314C103.756 6.50314 104.23 6.74004 104.475 6.9854V9.77746ZM106.345 11.8757V5.86858C106.345 5.31016 105.981 4.92943 105.44 4.92943C105.135 4.92943 104.89 5.04788 104.729 5.25094C104.247 4.96327 103.697 4.81944 103.155 4.81944C100.575 4.81944 99.7708 6.90926 99.7708 8.39836C99.7708 9.83669 100.515 11.8673 102.918 11.9857C103.908 12.028 104.458 11.6811 104.458 11.6811V11.7742C104.458 11.9688 104.543 13.3648 103.07 13.3648C102.774 13.3648 102.47 13.2972 102.157 13.1618C102.157 13.1618 102.021 13.0856 101.886 13.0095C101.759 12.9418 101.505 12.798 101.125 12.8233C100.778 12.8487 100.38 13.0095 100.092 13.4579L100.033 13.5679C99.9908 13.644 100.008 13.7371 100.084 13.7879C100.084 13.7879 100.786 14.2786 100.828 14.304C101.844 14.9809 102.749 15.0316 103.121 15.0316C105.846 15.0485 106.303 13.0941 106.345 11.8757ZM111.81 7.59458H109.323C109.535 6.95156 110.017 6.49468 110.795 6.49468C111.599 6.5116 111.794 7.02771 111.81 7.59458ZM113.672 7.8061C113.672 5.99549 112.64 4.81944 110.795 4.81944C108.139 4.81944 107.318 6.91772 107.318 8.38143C107.318 9.87899 108.139 11.9519 110.795 11.9519C111.413 11.9519 111.92 11.8081 112.276 11.6473C112.961 11.3343 113.41 11.0804 113.41 11.0804C113.486 11.0381 113.52 10.9451 113.486 10.8604L113.435 10.742C113.223 10.2513 112.724 9.94668 112.208 9.95514C111.929 9.9636 111.861 10.0144 111.658 10.0821C111.371 10.1836 111.074 10.2428 110.787 10.2428C109.881 10.2428 109.365 9.5321 109.255 8.71141H113.367C113.503 8.71141 113.621 8.60988 113.621 8.4745C113.655 8.25452 113.672 8.02608 113.672 7.8061Z" fill="#DF0024"/>
<line id="Line 1" x1="46.2704" y1="0.79096" x2="46.2704" y2="15.9073" stroke="#DF0024" stroke-width="0.521252" stroke-linecap="round"/>
</g>
</svg>
