<svg width="14" height="14" viewBox="0 0 14 14" fill="none" xmlns="http://www.w3.org/2000/svg">
<g id="plus">
<path id="Vector" d="M7.62533 6.37502V1.16669C7.62533 1.00093 7.55948 0.841955 7.44227 0.724745C7.32506 0.607535 7.16609 0.541687 7.00033 0.541687C6.83457 0.541687 6.67559 0.607535 6.55838 0.724745C6.44117 0.841955 6.37533 1.00093 6.37533 1.16669V6.37502H1.16699C1.00123 6.37502 0.842261 6.44087 0.72505 6.55808C0.60784 6.67529 0.541992 6.83426 0.541992 7.00002C0.541992 7.16578 0.60784 7.32475 0.72505 7.44196C0.842261 7.55917 1.00123 7.62502 1.16699 7.62502H6.37533V12.8334C6.37748 12.9984 6.44403 13.1562 6.56077 13.2729C6.67752 13.3897 6.83524 13.4562 7.00033 13.4584C7.16609 13.4584 7.32506 13.3925 7.44227 13.2753C7.55948 13.1581 7.62533 12.9991 7.62533 12.8334V7.62502H12.8337C12.9994 7.62502 13.1584 7.55917 13.2756 7.44196C13.3928 7.32475 13.4587 7.16578 13.4587 7.00002C13.4565 6.83493 13.39 6.67721 13.2732 6.56047C13.1565 6.44372 12.9987 6.37718 12.8337 6.37502H7.62533Z" fill="white"/>
</g>
</svg>
